<svg xmlns="http://www.w3.org/2000/svg" xmlns:xlink="http://www.w3.org/1999/xlink" version="1.1" preserveAspectRatio="none" x="0px" y="0px" viewBox="0 0 100 125"><defs><g id="a"><path fill="#000000" stroke="none" d=" M 57.25 60.15 Q 58.5 58.35 60 57 L 61.25 56 57.6 57.45 Q 53.55 59.25 51.75 61.1 51.45 59 49.95 55.95 48.4 52.9 45.35 47.55 42.25 42.2 39.4 40.3 42.6 45.3 44.8 52.8 46.45 58.4 46.6 61.1 46.75 63.05 47.05 66.25 46.15 65.1 44.8 63.75 42.2 61 40.05 60.1 40.55 60.85 42.4 63.55 44.15 66.45 45.05 69.55 47.7 78.85 42.6 90.6 46.1 92.4 49.6 92.4 53.15 92.4 56.15 90.6 55.15 88.15 54.4 83.25 53.6 78.5 53.5 74.35 53.35 66 57.25 60.15 M 42.3 60.05 Q 43.5 59.05 44 57.35 45.05 53.85 41.6 50 38.6 53.65 40.1 57.1 40.85 58.85 42.3 60.05 M 52.45 58.35 Q 53.95 57.8 55.05 56.15 57.25 52.9 54.9 47.7 50.65 50.45 51.1 54.55 51.3 56.65 52.45 58.35 M 72.85 56.55 Q 67.15 53.9 63 57.15 60.85 58.8 59.75 61.2 61.4 62.45 63.85 62.5 68.7 62.6 72.85 56.55 M 61.2 64.15 Q 61.05 64 60.8 63.8 60.2 63.5 59.6 63.4 57.65 63.1 55.85 65.4 58.1 66.8 59.85 65.65 60.4 65.3 60.85 64.7 L 61.2 64.15 M 64.1 55.05 Q 65.45 54.95 66.7 53.95 69.15 51.85 68.5 47.15 64.45 48.35 63.9 51.75 63.6 53.45 64.1 55.05 M 74.8 52.8 Q 75.35 52.3 75.35 52.2 L 74.9 51.8 Q 74.3 51.35 73.6 51.2 71.4 50.6 68.95 52.95 71.3 54.9 73.5 53.75 74.2 53.45 74.8 52.8 M 39.55 64.2 Q 40.4 63.6 40.45 63.6 40.3 63.25 40 62.8 39.35 61.95 38.45 61.45 35.65 59.8 31.55 62.25 34.15 65.75 37.45 65.05 38.5 64.85 39.55 64.2 M 28.9 57.8 L 28.65 57.3 Q 28.3 56.7 27.8 56.35 26.1 55.2 23.45 56.45 24.85 58.8 27 58.55 27.65 58.45 28.35 58.1 28.85 57.8 28.9 57.8 M 26.15 49.65 L 25.6 49.7 Q 24.95 49.9 24.45 50.25 22.8 51.5 23.1 54.5 25.7 53.9 26.15 51.75 26.3 51.1 26.2 50.3 26.15 49.7 26.15 49.65 M 31.55 59.65 L 31.75 59.15 31.35 58.95 Q 30.85 58.8 30.35 58.85 28.75 59.05 27.75 61.2 29.8 61.85 30.95 60.6 31.3 60.2 31.55 59.65 M 36.35 58.6 Q 36.75 56.65 35.85 54.5 34.1 50.3 27.7 49.4 27.65 55.5 31.85 57.6 33.2 58.25 34.85 58.45 36.25 58.55 36.35 58.6 M 31.65 40.6 Q 32.45 40.65 32.5 40.65 32.55 40.4 32.55 39.95 32.55 39.1 32.25 38.35 31.2 35.9 27.5 35.4 27.5 38.9 29.95 40.1 30.7 40.5 31.65 40.6 M 38.4 43 Q 34.75 45.7 35.35 49.35 35.65 51.2 36.75 52.7 38.1 52.1 39 50.6 40.8 47.55 38.4 43 M 34.25 41.05 Q 34.4 42.1 34.85 43.05 35.1 43.4 35.3 43.75 36.15 43.35 36.75 42.6 36.95 42.35 37.15 42.05 38.65 39.65 36.85 36 33.8 38.15 34.25 41.05 M 25.8 41.3 Q 25.75 46.95 29.65 48.9 30.9 49.5 32.45 49.7 33.75 49.75 33.85 49.8 34.2 48 33.4 46.05 31.75 42.1 25.8 41.3 M 23.55 44.05 Q 23.55 43.8 23.4 43.5 23.1 42.8 22.65 42.3 21.1 40.7 18.05 41.5 19.1 44.3 21.4 44.45 22.1 44.5 22.85 44.25 L 23.55 44.05 M 25.1 45.8 L 24.4 45.65 Q 23.5 45.55 22.7 45.8 20.15 46.6 19.25 50.5 22.75 50.85 24.2 48.4 24.7 47.65 24.9 46.7 25.05 45.8 25.1 45.8 M 31.95 35.35 Q 33.05 35.35 34.1 34.55 36.15 33.05 35.8 29.25 32.55 30 31.9 32.7 31.6 34.05 31.95 35.35 M 36.8 28.25 Q 37.55 28 38.1 27.2 39.2 25.7 38.15 23.15 36.05 24.45 36.2 26.4 36.3 27.4 36.8 28.25 M 19.05 27.7 Q 16.35 34.4 20.1 38.65 21.25 40 23 41 24.5 41.7 24.6 41.8 25.85 39.8 25.8 37.1 25.75 31.6 19.05 27.7 M 32.75 14.5 Q 33 15.5 33.7 16.3 34.4 15.9 34.85 15 35.7 13.2 34.2 10.75 32.25 12.45 32.75 14.5 M 34.25 18.1 Q 30.5 20.75 31 24.45 31.3 26.3 32.35 27.75 33.7 27.2 34.65 25.7 36.5 22.7 34.25 18.1 M 30.4 19.8 Q 31.3 19.35 31.8 18.25 32.8 16.15 31 13.25 28.65 15.25 29.25 17.65 29.6 18.9 30.4 19.8 M 39.1 21.65 Q 40.15 22.4 40.2 22.45 41.4 21.1 41.65 19 42.2 14.8 37.45 11.05 34.75 15.85 37.1 19.55 37.85 20.7 39.1 21.65 M 27.55 22.85 Q 28.25 23.2 29.1 23.3 29.85 23.35 29.9 23.35 29.95 23.1 29.95 22.75 29.9 21.95 29.65 21.25 28.7 19.05 25.4 18.6 25.4 21.8 27.55 22.85 M 23.05 22.4 Q 22.05 22.2 21.3 22.1 L 21.05 23.55 Q 20.95 25.3 21.4 26.95 23.1 32.1 30.55 33.85 31.2 26.65 26.45 23.7 24.95 22.8 23.05 22.4 M 42.65 28.05 Q 45.65 26.45 45.85 21.45 41.45 21.8 40.15 25.15 39.5 26.9 39.7 28.7 41.15 28.9 42.65 28.05 M 79.8 45.25 Q 76.1 44.4 74.2 46.85 73.25 48.05 73 49.6 74.1 50.15 75.5 49.85 78.35 49.3 79.8 45.25 M 74.6 39.9 Q 76.15 40.25 77.9 39.5 81.4 38 82.1 32.35 77.15 32.35 75.4 36 74.5 37.85 74.6 39.9 M 71.65 46.9 Q 73.1 45.5 73.6 43.1 74.6 38.25 69.65 33.1 66.05 38.35 68.4 43.05 69.6 45.4 71.65 46.9 M 64.75 45.5 Q 64.85 46.5 65.4 47.35 66.3 47.1 66.95 46.35 68.25 44.9 67.1 42.3 64.65 43.5 64.75 45.5 M 61.5 41.1 Q 62.15 43.15 63.55 44.55 64.9 43.65 65.6 41.85 67 38.2 63.75 33.55 60.25 37.15 61.5 41.1 M 68.1 32.95 Q 69.45 31.35 68.5 28.45 66.1 29.7 66.1 31.9 66.1 33 66.6 33.95 67.45 33.75 68.1 32.95 M 73.5 34.25 Q 75.75 33.3 77.2 31.1 80.1 26.65 76.05 20.3 69.95 24.4 71.05 29.6 71.4 31.25 72.45 32.85 73 33.65 73.5 34.25 M 40.75 38.1 Q 41.65 37.1 41.85 35.5 42.2 32.3 38.7 29.45 36.6 33.1 38.4 35.9 38.95 36.75 39.9 37.5 40.7 38.05 40.75 38.1 M 52.1 40.25 Q 52.8 39.55 53 38.4 53.45 36.1 51 33.85 49.3 36.4 50.45 38.5 51.1 39.6 52.1 40.25 M 60.3 43.2 L 59.3 43.85 Q 58.15 44.8 57.45 46 55.3 50 58.55 55.7 63.15 52.05 62.2 47.35 61.95 45.9 61.1 44.45 60.3 43.25 60.3 43.2 M 48.2 38.5 Q 45.3 43.25 47.6 47.05 48.75 48.95 50.65 50.1 51.9 48.75 52.2 46.65 52.8 42.4 48.2 38.5 M 43.6 40.95 Q 44.8 40.6 45.8 39.4 47.7 37 46.2 32.9 42.75 34.7 42.8 37.9 42.85 39.55 43.6 40.95 M 45.35 30.8 Q 47.5 30.2 48.4 26.95 45.45 26.5 44.1 28.5 43.45 29.55 43.3 30.75 44.25 31.1 45.35 30.8 M 48.3 34.95 Q 49.35 34.7 50.15 33.75 51.8 31.95 50.8 28.45 47.85 29.8 47.8 32.4 47.75 33.75 48.3 34.95 M 60.4 26.8 Q 58.2 29.75 59.55 32.2 60.2 33.4 61.4 34.1 62.3 33.3 62.6 31.95 63.3 29.35 60.4 26.8 M 58.65 34.15 L 57.5 34.6 Q 56.2 35.25 55.2 36.3 52.2 39.75 54.1 46.2 59.55 43.65 59.65 38.8 59.7 37.25 59.15 35.6 58.65 34.25 58.65 34.15 M 55.5 33.3 Q 56.85 32.15 57.4 30.25 58.55 26.45 54.5 22.6 51.1 26.75 52.9 30.35 53.8 32.2 55.5 33.3 M 52.6 20.55 Q 48.9 20.8 48.25 23.3 47.85 24.6 48.25 25.9 49.45 25.95 50.6 25.3 52.9 24 52.6 20.55 M 54.75 15.95 L 54.4 16.7 Q 54.05 17.65 54.1 18.6 54.2 21.65 57.95 23.75 59.4 20 57.3 17.65 56.2 16.5 54.75 15.95 M 60.7 16.65 L 60.1 17.8 Q 59.55 19.35 59.55 20.9 59.65 25.85 65.7 29.3 68.15 23.25 64.75 19.4 63.05 17.5 60.7 16.65 M 59 17.05 Q 59.4 15.1 58.15 14.15 57.5 13.65 56.75 13.55 L 56.65 13.95 Q 56.55 14.4 56.65 14.9 56.95 16.35 59 17.05 M 47.25 21.55 Q 48.3 21.35 49.25 20.45 51.1 18.65 50.25 14.95 47.1 16.15 46.85 18.9 46.75 20.25 47.25 21.55 M 43.15 12.4 L 42.75 13 Q 42.3 13.7 42.2 14.55 41.75 17.15 44.5 19.6 46.4 16.75 45 14.35 44.35 13.15 43.15 12.4 M 48.5 9.15 Q 48.3 8.75 48.05 8.4 L 47.45 8.8 Q 46.8 9.3 46.45 10 45.15 12.25 46.95 15.55 49.6 13.5 49.15 10.8 49 10 48.5 9.15 M 42.2 12 Q 42.95 10.45 41.6 8.35 39.95 9.8 40.35 11.55 40.6 12.45 41.2 13.1 41.8 12.75 42.2 12 M 44.2 10.9 Q 44.65 10.7 45 10.25 45.65 9.35 45.05 7.8 43.75 8.55 43.85 9.75 43.9 10.35 44.2 10.9 M 57.4 8.8 L 57.2 8.3 56.8 8.45 Q 56.3 8.75 56 9.1 54.95 10.45 55.7 12.75 57.65 11.7 57.6 9.95 57.6 9.4 57.4 8.8 M 51.75 11.35 Q 52.8 10 52 7.65 50 8.65 50 10.45 50.05 11.4 50.45 12.2 51.2 12 51.75 11.35 M 54.15 10.65 L 53.55 10.9 Q 52.9 11.3 52.4 11.9 50.9 13.8 52.05 17.15 54.85 15.65 54.8 13.1 54.8 12.3 54.45 11.4 54.15 10.7 54.15 10.65 M 73.65 18.4 Q 74 16.4 71.7 14.85 70.2 17.2 71.3 18.8 71.9 19.65 72.8 20.05 73.45 19.4 73.65 18.4 M 69.9 18.6 Q 67.1 21.05 67.8 23.95 68.2 25.4 69.15 26.45 70.2 25.9 70.85 24.6 72.05 22.05 69.9 18.6 M 62.45 16 Q 63.3 16.3 63.35 16.3 63.9 15.2 63.7 13.75 63.25 10.85 59.5 9.3 58.55 12.95 60.8 15 61.45 15.6 62.45 16 M 64.85 16.75 Q 65.3 18.4 66.4 19.6 67.55 18.95 68.25 17.5 69.65 14.6 67.15 10.75 64.05 13.45 64.85 16.75 M 81.1 41.6 Q 81.4 41 81.4 40.95 L 80.9 40.65 Q 80.25 40.4 79.6 40.4 77.45 40.4 75.8 43.15 78.4 44.3 80.1 42.8 80.65 42.3 81.1 41.6 Z"/></g></defs><g transform="matrix( 1, 0, 0, 1, 0,0) "><use xlink:href="#a"/></g><text x="0" y="115" fill="#000000" font-size="5px" font-weight="bold" font-family="'Helvetica Neue', Helvetica, Arial-Unicode, Arial, Sans-serif">Created by Ian Dannister</text><text x="0" y="120" fill="#000000" font-size="5px" font-weight="bold" font-family="'Helvetica Neue', Helvetica, Arial-Unicode, Arial, Sans-serif">from the Noun Project</text></svg>